<svg xmlns="http://www.w3.org/2000/svg" width="940" height="640" viewBox="0 0 940 640" font-family="Segoe UI, Arial, sans-serif" font-size="12">
<rect width="940" height="640" fill="#ffffff"/>
<text x="70" y="24" font-size="16" font-weight="600" fill="#202124">MNQ M30, 20 May 2025 01:00 to 20 May 2025 10:00: Q23 short at swing-low support</text>
<text x="70" y="42" fill="#5f6368">Q23, short mirror of Q18. Swing low = lowest of 5 bars each side, one-week window;</text>
<text x="70" y="58" fill="#5f6368">band = level +/- 0.5 x ATR(14). Markers sit under green signal candles: sell stop at the</text>
<text x="70" y="74" fill="#5f6368">candle low, stop at its high, exit after a close below entry - 1R or at the session flatten.</text>
<text x="70" y="90" fill="#5f6368">Trades are the verified stage-0 run of the short mirror baseline.</text>
<line x1="70" x2="640" y1="559.0" y2="559.0" stroke="#eeeeee"/>
<text x="64" y="563.0" text-anchor="end" fill="#5f6368">21,400</text>
<line x1="70" x2="640" y1="505.2" y2="505.2" stroke="#eeeeee"/>
<text x="64" y="509.2" text-anchor="end" fill="#5f6368">21,420</text>
<line x1="70" x2="640" y1="451.3" y2="451.3" stroke="#eeeeee"/>
<text x="64" y="455.3" text-anchor="end" fill="#5f6368">21,440</text>
<line x1="70" x2="640" y1="397.5" y2="397.5" stroke="#eeeeee"/>
<text x="64" y="401.5" text-anchor="end" fill="#5f6368">21,460</text>
<line x1="70" x2="640" y1="343.6" y2="343.6" stroke="#eeeeee"/>
<text x="64" y="347.6" text-anchor="end" fill="#5f6368">21,480</text>
<line x1="70" x2="640" y1="289.8" y2="289.8" stroke="#eeeeee"/>
<text x="64" y="293.8" text-anchor="end" fill="#5f6368">21,500</text>
<line x1="70" x2="640" y1="235.9" y2="235.9" stroke="#eeeeee"/>
<text x="64" y="239.9" text-anchor="end" fill="#5f6368">21,520</text>
<line x1="70" x2="640" y1="182.1" y2="182.1" stroke="#eeeeee"/>
<text x="64" y="186.1" text-anchor="end" fill="#5f6368">21,540</text>
<line x1="70" x2="640" y1="128.2" y2="128.2" stroke="#eeeeee"/>
<text x="64" y="132.2" text-anchor="end" fill="#5f6368">21,560</text>
<line x1="70.0" x2="70.0" y1="104" y2="594" stroke="#f3f3f3"/>
<text x="85.0" y="610" fill="#5f6368">20 May</text>
<rect x="85.0" y="2090.6" width="540.1" height="71.0" fill="#2962ff" opacity="0.07"/>
<line x1="85.0" x2="625.0" y1="2126.1" y2="2126.1" stroke="#2962ff" stroke-width="1.6" opacity="0.85"><title>Swing low 20,818.00 set 13 May 07:30</title></line>
<rect x="85.0" y="2069.2" width="540.1" height="78.9" fill="#2962ff" opacity="0.07"/>
<line x1="85.0" x2="625.0" y1="2108.6" y2="2108.6" stroke="#2962ff" stroke-width="1.6" opacity="0.85"><title>Swing low 20,824.50 set 13 May 11:00</title></line>
<line x1="85.0" x2="625.0" y1="969.6" y2="969.6" stroke="#9e9e9e" stroke-width="1" stroke-dasharray="4 3" opacity="0.8"/>
<line x1="85.0" x2="625.0" y1="971.7" y2="971.7" stroke="#9e9e9e" stroke-width="1" stroke-dasharray="4 3" opacity="0.8"/>
<line x1="85.0" x2="625.0" y1="994.6" y2="994.6" stroke="#9e9e9e" stroke-width="1" stroke-dasharray="4 3" opacity="0.8"/>
<line x1="85.0" x2="625.0" y1="899.0" y2="899.0" stroke="#9e9e9e" stroke-width="1" stroke-dasharray="4 3" opacity="0.8"/>
<line x1="85.0" x2="625.0" y1="878.1" y2="878.1" stroke="#9e9e9e" stroke-width="1" stroke-dasharray="4 3" opacity="0.8"/>
<line x1="85.0" x2="625.0" y1="1119.1" y2="1119.1" stroke="#9e9e9e" stroke-width="1" stroke-dasharray="4 3" opacity="0.8"/>
<line x1="85.0" x2="625.0" y1="818.2" y2="818.2" stroke="#9e9e9e" stroke-width="1" stroke-dasharray="4 3" opacity="0.8"/>
<line x1="85.0" x2="625.0" y1="697.0" y2="697.0" stroke="#9e9e9e" stroke-width="1" stroke-dasharray="4 3" opacity="0.8"/>
<line x1="85.0" x2="625.0" y1="661.3" y2="661.3" stroke="#9e9e9e" stroke-width="1" stroke-dasharray="4 3" opacity="0.8"/>
<line x1="85.0" x2="625.0" y1="773.8" y2="773.8" stroke="#9e9e9e" stroke-width="1" stroke-dasharray="4 3" opacity="0.8"/>
<line x1="85.0" x2="625.0" y1="1108.3" y2="1108.3" stroke="#9e9e9e" stroke-width="1" stroke-dasharray="4 3" opacity="0.8"/>
<rect x="85.0" y="1277.4" width="540.1" height="111.5" fill="#2962ff" opacity="0.07"/>
<line x1="85.0" x2="625.0" y1="1333.1" y2="1333.1" stroke="#2962ff" stroke-width="1.6" opacity="0.85"><title>Swing low 21,112.50 set 19 May 11:30</title></line>
<rect x="115.0" y="371.3" width="420.1" height="141.3" fill="#2962ff" opacity="0.07"/>
<line x1="85.0" x2="115.0" y1="441.9" y2="441.9" stroke="#2962ff" stroke-width="1" stroke-dasharray="1 3" opacity="0.7"/>
<line x1="115.0" x2="535.0" y1="441.9" y2="441.9" stroke="#2962ff" stroke-width="1.6" opacity="0.85"><title>Swing low 21,443.50 set 19 May 22:00</title></line>
<line x1="535.0" x2="625.0" y1="441.9" y2="441.9" stroke="#9e9e9e" stroke-width="1" stroke-dasharray="4 3" opacity="0.8"/>
<text x="535.0" y="445.9" text-anchor="middle" fill="#ef5350" font-weight="700">x</text>
<line x1="85.0" x2="85.0" y1="249.4" y2="293.8" stroke="#ef5350" stroke-width="1"/>
<rect x="74.5" y="254.8" width="21.0" height="26.3" fill="#ef5350"/>
<line x1="115.0" x2="115.0" y1="273.6" y2="308.6" stroke="#ef5350" stroke-width="1"/>
<rect x="104.5" y="282.4" width="21.0" height="7.4" fill="#ef5350"/>
<line x1="145.0" x2="145.0" y1="203.6" y2="295.8" stroke="#26a69a" stroke-width="1"/>
<rect x="134.5" y="210.3" width="21.0" height="80.1" fill="#26a69a"/>
<line x1="175.0" x2="175.0" y1="122.8" y2="227.8" stroke="#26a69a" stroke-width="1"/>
<rect x="164.5" y="184.1" width="21.0" height="24.9" fill="#26a69a"/>
<line x1="205.0" x2="205.0" y1="122.1" y2="192.2" stroke="#26a69a" stroke-width="1"/>
<rect x="194.5" y="173.3" width="21.0" height="11.4" fill="#26a69a"/>
<line x1="235.0" x2="235.0" y1="142.3" y2="254.1" stroke="#ef5350" stroke-width="1"/>
<rect x="224.5" y="174.0" width="21.0" height="78.1" fill="#ef5350"/>
<line x1="265.0" x2="265.0" y1="252.1" y2="402.9" stroke="#ef5350" stroke-width="1"/>
<rect x="254.5" y="254.1" width="21.0" height="125.9" fill="#ef5350"/>
<line x1="295.0" x2="295.0" y1="378.6" y2="461.4" stroke="#ef5350" stroke-width="1"/>
<rect x="284.5" y="386.7" width="21.0" height="16.2" fill="#ef5350"/>
<line x1="325.0" x2="325.0" y1="378.6" y2="443.9" stroke="#ef5350" stroke-width="1"/>
<rect x="314.5" y="402.9" width="21.0" height="30.3" fill="#ef5350"/>
<line x1="355.0" x2="355.0" y1="395.4" y2="466.1" stroke="#26a69a" stroke-width="1"/>
<rect x="344.5" y="412.3" width="21.0" height="20.9" fill="#26a69a"/>
<line x1="385.0" x2="385.0" y1="412.9" y2="455.4" stroke="#ef5350" stroke-width="1"/>
<rect x="374.5" y="414.3" width="21.0" height="17.5" fill="#ef5350"/>
<line x1="415.0" x2="415.0" y1="411.6" y2="485.0" stroke="#ef5350" stroke-width="1"/>
<rect x="404.5" y="432.5" width="21.0" height="35.0" fill="#ef5350"/>
<line x1="445.0" x2="445.0" y1="451.3" y2="505.2" stroke="#ef5350" stroke-width="1"/>
<rect x="434.5" y="465.5" width="21.0" height="7.4" fill="#ef5350"/>
<line x1="475.0" x2="475.0" y1="419.0" y2="489.0" stroke="#26a69a" stroke-width="1"/>
<rect x="464.5" y="431.1" width="21.0" height="41.1" fill="#26a69a"/>
<line x1="505.0" x2="505.0" y1="338.2" y2="435.2" stroke="#26a69a" stroke-width="1"/>
<rect x="494.5" y="355.7" width="21.0" height="78.8" fill="#26a69a"/>
<line x1="535.0" x2="535.0" y1="324.8" y2="516.6" stroke="#ef5350" stroke-width="1"/>
<rect x="524.5" y="353.7" width="21.0" height="154.2" fill="#ef5350"/>
<line x1="565.0" x2="565.0" y1="495.1" y2="575.9" stroke="#ef5350" stroke-width="1"/>
<rect x="554.5" y="507.9" width="21.0" height="43.1" fill="#ef5350"/>
<line x1="595.0" x2="595.0" y1="473.5" y2="556.3" stroke="#26a69a" stroke-width="1"/>
<rect x="584.5" y="497.8" width="21.0" height="51.2" fill="#26a69a"/>
<line x1="625.0" x2="625.0" y1="379.3" y2="537.5" stroke="#26a69a" stroke-width="1"/>
<rect x="614.5" y="386.0" width="21.0" height="113.1" fill="#26a69a"/>
<path d="M355.0,473.1 l5,9 h-10 z" fill="#f57c00" stroke="#ffffff" stroke-width="1"><title>20 May 05:30 Breakdown test from above (Q23 candidate); level 21,443.50, beyond level +0.23 ATR</title></path>
<path d="M475.0,496.0 l5,9 h-10 z" fill="#000000" stroke="#ffffff" stroke-width="1"><title>20 May 07:30 Low &gt; 0.5 x ATR below intact level; level 21,443.50, beyond level +0.61 ATR</title></path>
<path d="M505.0,442.2 l5,9 h-10 z" fill="#f57c00" stroke="#ffffff" stroke-width="1"><title>20 May 08:00 Breakdown test from above (Q23 candidate); level 21,443.50, beyond level -0.09 ATR</title></path>
<path d="M595.0,563.3 l5,9 h-10 z" fill="#7b1fa2" stroke="#ffffff" stroke-width="1"><title>20 May 09:30 Contact with a broken level; level 21,443.50, beyond level +1.27 ATR</title></path>
<path d="M625.0,544.5 l5,9 h-10 z" fill="#7b1fa2" stroke="#ffffff" stroke-width="1"><title>20 May 10:00 Contact with a broken level; level 21,443.50, beyond level +1.08 ATR</title></path>
<line x1="235.0" y1="192.2" x2="295.0" y2="386.0" stroke="#bdbdbd" stroke-width="1.2"><title>no_contact: short 21,536.25 at 20 May 03:31, stop 21,562.25, exit 21,464.25 at 04:30 (1R target), net +142.95 $</title></line>
<line x1="400.0" x2="520.0" y1="395.4" y2="395.4" stroke="#ef5350" stroke-width="1.6" stroke-dasharray="5 3"/>
<line x1="400.0" x2="520.0" y1="536.8" y2="536.8" stroke="#26a69a" stroke-width="1.6" stroke-dasharray="5 3"/>
<line x1="415.0" y1="466.1" x2="505.0" y2="395.4" stroke="#ef5350" stroke-width="2"/>
<path d="M415.0,472.1 l6,-11 h-12 z" fill="#202124"><title>breakdown_test: short 21,434.50 at 20 May 06:35, stop 21,460.75, exit 21,460.75 at 08:08 (stop), net -53.55 $</title></path>
<circle cx="505.0" cy="395.4" r="4" fill="#ffffff" stroke="#ef5350" stroke-width="2"><title>breakdown_test: short 21,434.50 at 20 May 06:35, stop 21,460.75, exit 21,460.75 at 08:08 (stop), net -53.55 $</title></circle>
<line x1="520.0" x2="610.0" y1="338.2" y2="338.2" stroke="#ef5350" stroke-width="1.6" stroke-dasharray="5 3"/>
<line x1="520.0" x2="610.0" y1="532.1" y2="532.1" stroke="#26a69a" stroke-width="1.6" stroke-dasharray="5 3"/>
<line x1="535.0" y1="435.2" x2="595.0" y2="548.3" stroke="#26a69a" stroke-width="2"/>
<path d="M535.0,441.2 l6,-11 h-12 z" fill="#202124"><title>breakdown_test: short 21,446.00 at 20 May 08:48, stop 21,482.00, exit 21,404.00 at 09:30 (1R target), net +82.95 $</title></path>
<circle cx="595.0" cy="548.3" r="4" fill="#ffffff" stroke="#26a69a" stroke-width="2"><title>breakdown_test: short 21,446.00 at 20 May 08:48, stop 21,482.00, exit 21,404.00 at 09:30 (1R target), net +82.95 $</title></circle>
<line x1="658" x2="680" y1="112" y2="112" stroke="#2962ff" stroke-width="2"/>
<text x="688" y="116" fill="#202124">Swing-low level (usable)</text>
<line x1="658" x2="680" y1="134" y2="134" stroke="#2962ff" stroke-dasharray="1 3"/>
<text x="688" y="138" fill="#202124">Not yet confirmed</text>
<text x="669" y="160" text-anchor="middle" fill="#ef5350" font-weight="700">x</text>
<text x="688" y="160" fill="#202124">Level broken</text>
<line x1="658" x2="680" y1="178" y2="178" stroke="#9e9e9e" stroke-dasharray="4 3"/>
<text x="688" y="182" fill="#202124">Broken level (now resistance)</text>
<path d="M669,194 l6,11 h-12 z" fill="#f57c00"/>
<text x="688" y="204" fill="#202124">Breakdown test from above (Q23 candidate)</text>
<path d="M669,216 l6,11 h-12 z" fill="#000000"/>
<text x="688" y="226" fill="#202124">Low &gt; 0.5 x ATR below intact level</text>
<path d="M669,238 l6,11 h-12 z" fill="#7b1fa2"/>
<text x="688" y="248" fill="#202124">Contact with a broken level</text>
<path d="M669,260 l6,11 h-12 z" fill="#9e9e9e"/>
<text x="688" y="270" fill="#202124">Contact, price never left by 1 x ATR</text>
<path d="M669,294 l6,-11 h-12 z" fill="#202124"/>
<text x="688" y="292" fill="#202124">Short entry (sell stop at the signal low)</text>
<circle cx="669" cy="310" r="4" fill="#ffffff" stroke="#5f6368" stroke-width="2"/>
<text x="688" y="314" fill="#202124">Exit (green profit / red loss)</text>
<line x1="658" x2="680" y1="332" y2="332" stroke="#ef5350" stroke-width="2" stroke-dasharray="5 3"/>
<text x="688" y="336" fill="#202124">Stop = signal high</text>
<line x1="658" x2="680" y1="354" y2="354" stroke="#26a69a" stroke-width="2" stroke-dasharray="5 3"/>
<text x="688" y="358" fill="#202124">1R target (close below -&gt; exit)</text>
<line x1="658" x2="680" y1="376" y2="376" stroke="#bdbdbd" stroke-width="2"/>
<text x="688" y="380" fill="#202124">Other mirror-baseline short</text>
</svg>