<svg xmlns="http://www.w3.org/2000/svg" width="1072" height="660" viewBox="0 0 1072 660" font-family="Segoe UI, Arial, sans-serif" font-size="12">
<rect width="1072" height="660" fill="#ffffff"/>
<text x="70" y="24" font-size="16" font-weight="600" fill="#202124">Q20 resting buy limit, 12 May 2026 19:00 - 09:30</text>
<text x="70" y="42" fill="#5f6368">Rising lines through consecutive higher swing lows (5 bars each side, >= 10 bars apart, >= 0.02 x ATR per bar, one week), intact and departed by 1 x ATR. At each bar open the buy limit sits on the nearest such line below price;</text>
<text x="70" y="56" fill="#5f6368">it is fixed for that bar and re-priced at the next open. Stop = limit - 0.5 x ATR(14). Classify-only run: no orders, no outcomes.</text>
<line x1="70" x2="772" y1="533.8" y2="533.8" stroke="#eeeeee"/>
<text x="64" y="537.8" text-anchor="end" fill="#5f6368">28,800</text>
<line x1="70" x2="772" y1="452.4" y2="452.4" stroke="#eeeeee"/>
<text x="64" y="456.4" text-anchor="end" fill="#5f6368">28,900</text>
<line x1="70" x2="772" y1="371.0" y2="371.0" stroke="#eeeeee"/>
<text x="64" y="375.0" text-anchor="end" fill="#5f6368">29,000</text>
<line x1="70" x2="772" y1="289.5" y2="289.5" stroke="#eeeeee"/>
<text x="64" y="293.5" text-anchor="end" fill="#5f6368">29,100</text>
<line x1="70" x2="772" y1="208.1" y2="208.1" stroke="#eeeeee"/>
<text x="64" y="212.1" text-anchor="end" fill="#5f6368">29,200</text>
<line x1="70" x2="772" y1="126.7" y2="126.7" stroke="#eeeeee"/>
<text x="64" y="130.7" text-anchor="end" fill="#5f6368">29,300</text>
<line x1="70.0" x2="70.0" y1="64" y2="614" stroke="#ececec"/>
<text x="83.0" y="630" text-anchor="middle" fill="#5f6368">19:00</text>
<text x="135.0" y="630" text-anchor="middle" fill="#5f6368">20:00</text>
<text x="187.0" y="630" text-anchor="middle" fill="#5f6368">21:00</text>
<text x="239.0" y="630" text-anchor="middle" fill="#5f6368">22:00</text>
<text x="291.0" y="630" text-anchor="middle" fill="#5f6368">23:00</text>
<line x1="330.0" x2="330.0" y1="64" y2="614" stroke="#ececec"/>
<text x="343.0" y="630" text-anchor="middle" fill="#5f6368">01:00</text>
<text x="395.0" y="630" text-anchor="middle" fill="#5f6368">02:00</text>
<text x="447.0" y="630" text-anchor="middle" fill="#5f6368">03:00</text>
<text x="499.0" y="630" text-anchor="middle" fill="#5f6368">04:00</text>
<text x="551.0" y="630" text-anchor="middle" fill="#5f6368">05:00</text>
<text x="603.0" y="630" text-anchor="middle" fill="#5f6368">06:00</text>
<text x="655.0" y="630" text-anchor="middle" fill="#5f6368">07:00</text>
<text x="707.0" y="630" text-anchor="middle" fill="#5f6368">08:00</text>
<text x="759.0" y="630" text-anchor="middle" fill="#5f6368">09:00</text>
<text x="70" y="650" fill="#5f6368">Tue 12 May 2026</text>
<line x1="83.0" x2="122.0" y1="515.9" y2="512.7" stroke="#7b1fa2" stroke-width="1.1" opacity="0.6"><title>Line 06 May 09:30 -&gt; 06 May 16:30</title></line>
<line x1="83.0" x2="772.0" y1="582.3" y2="548.7" stroke="#7b1fa2" stroke-width="1.1" opacity="0.6"><title>Line 08 May 01:00 -&gt; 12 May 19:30</title></line>
<circle cx="109.0" cy="581.0" r="5" fill="none" stroke="#7b1fa2" stroke-width="1.5"/>
<line x1="109.0" x2="694.0" y1="581.0" y2="139.2" stroke="#7b1fa2" stroke-width="1.1" opacity="0.6"><title>Line 12 May 19:30 -&gt; 13 May 03:00</title></line>
<circle cx="109.0" cy="581.0" r="5" fill="none" stroke="#7b1fa2" stroke-width="1.5"/>
<circle cx="447.0" cy="325.8" r="5" fill="none" stroke="#7b1fa2" stroke-width="1.5"/>
<line x1="83.0" x2="83.0" y1="441.4" y2="524.8" stroke="#ef5350" stroke-width="1"/>
<rect x="75.8" y="501.2" width="14.3" height="0.8" fill="#ef5350"/>
<line x1="109.0" x2="109.0" y1="495.9" y2="581.0" stroke="#ef5350" stroke-width="1"/>
<rect x="101.8" y="501.6" width="14.3" height="73.7" fill="#ef5350"/>
<line x1="135.0" x2="135.0" y1="428.2" y2="575.3" stroke="#26a69a" stroke-width="1"/>
<rect x="127.8" y="461.9" width="14.3" height="113.0" fill="#26a69a"/>
<line x1="161.0" x2="161.0" y1="428.8" y2="471.3" stroke="#26a69a" stroke-width="1"/>
<rect x="153.8" y="435.7" width="14.3" height="25.8" fill="#26a69a"/>
<line x1="187.0" x2="187.0" y1="368.9" y2="443.2" stroke="#26a69a" stroke-width="1"/>
<rect x="179.8" y="378.3" width="14.3" height="57.6" fill="#26a69a"/>
<line x1="213.0" x2="213.0" y1="365.1" y2="413.7" stroke="#ef5350" stroke-width="1"/>
<rect x="205.8" y="378.5" width="14.3" height="28.3" fill="#ef5350"/>
<line x1="239.0" x2="239.0" y1="318.8" y2="407.0" stroke="#26a69a" stroke-width="1"/>
<rect x="231.8" y="332.3" width="14.3" height="74.3" fill="#26a69a"/>
<line x1="265.0" x2="265.0" y1="217.7" y2="332.7" stroke="#26a69a" stroke-width="1"/>
<rect x="257.9" y="229.1" width="14.3" height="103.2" fill="#26a69a"/>
<line x1="291.0" x2="291.0" y1="227.7" y2="287.1" stroke="#ef5350" stroke-width="1"/>
<rect x="283.9" y="228.9" width="14.3" height="41.3" fill="#ef5350"/>
<line x1="317.0" x2="317.0" y1="248.0" y2="283.0" stroke="#26a69a" stroke-width="1"/>
<rect x="309.9" y="261.7" width="14.3" height="8.3" fill="#26a69a"/>
<line x1="343.0" x2="343.0" y1="218.7" y2="262.3" stroke="#26a69a" stroke-width="1"/>
<rect x="335.9" y="231.9" width="14.3" height="22.0" fill="#26a69a"/>
<line x1="369.0" x2="369.0" y1="224.6" y2="256.0" stroke="#ef5350" stroke-width="1"/>
<rect x="361.9" y="233.4" width="14.3" height="21.6" fill="#ef5350"/>
<line x1="395.0" x2="395.0" y1="241.7" y2="268.0" stroke="#ef5350" stroke-width="1"/>
<rect x="387.9" y="255.3" width="14.3" height="10.2" fill="#ef5350"/>
<line x1="421.0" x2="421.0" y1="265.5" y2="307.9" stroke="#ef5350" stroke-width="1"/>
<rect x="413.9" y="265.5" width="14.3" height="38.7" fill="#ef5350"/>
<line x1="447.0" x2="447.0" y1="243.1" y2="325.8" stroke="#26a69a" stroke-width="1"/>
<rect x="439.9" y="271.4" width="14.3" height="33.0" fill="#26a69a"/>
<line x1="473.0" x2="473.0" y1="249.8" y2="294.2" stroke="#26a69a" stroke-width="1"/>
<rect x="465.9" y="252.7" width="14.3" height="18.7" fill="#26a69a"/>
<line x1="499.0" x2="499.0" y1="210.6" y2="255.1" stroke="#26a69a" stroke-width="1"/>
<rect x="491.9" y="211.6" width="14.3" height="42.1" fill="#26a69a"/>
<line x1="525.0" x2="525.0" y1="159.1" y2="230.5" stroke="#26a69a" stroke-width="1"/>
<rect x="517.9" y="196.1" width="14.3" height="16.7" fill="#26a69a"/>
<line x1="551.0" x2="551.0" y1="175.1" y2="206.3" stroke="#26a69a" stroke-width="1"/>
<rect x="543.9" y="180.2" width="14.3" height="15.9" fill="#26a69a"/>
<line x1="577.0" x2="577.0" y1="175.6" y2="199.2" stroke="#ef5350" stroke-width="1"/>
<rect x="569.9" y="179.4" width="14.3" height="10.0" fill="#ef5350"/>
<line x1="603.0" x2="603.0" y1="176.2" y2="205.5" stroke="#26a69a" stroke-width="1"/>
<rect x="595.9" y="177.8" width="14.3" height="12.2" fill="#26a69a"/>
<line x1="629.0" x2="629.0" y1="155.4" y2="178.2" stroke="#26a69a" stroke-width="1"/>
<rect x="621.9" y="168.2" width="14.3" height="9.8" fill="#26a69a"/>
<line x1="655.0" x2="655.0" y1="142.0" y2="172.3" stroke="#26a69a" stroke-width="1"/>
<rect x="647.9" y="145.6" width="14.3" height="22.8" fill="#26a69a"/>
<line x1="681.0" x2="681.0" y1="128.5" y2="159.7" stroke="#26a69a" stroke-width="1"/>
<rect x="673.9" y="136.9" width="14.3" height="9.4" fill="#26a69a"/>
<line x1="707.0" x2="707.0" y1="118.6" y2="146.7" stroke="#26a69a" stroke-width="1"/>
<rect x="699.9" y="128.3" width="14.3" height="9.0" fill="#26a69a"/>
<line x1="733.0" x2="733.0" y1="123.5" y2="138.9" stroke="#ef5350" stroke-width="1"/>
<rect x="725.9" y="126.9" width="14.3" height="2.2" fill="#ef5350"/>
<line x1="759.0" x2="759.0" y1="84.4" y2="134.2" stroke="#26a69a" stroke-width="1"/>
<rect x="751.9" y="113.9" width="14.3" height="15.9" fill="#26a69a"/>
<line x1="70.0" x2="96.0" y1="515.9" y2="515.9" stroke="#f57c00" stroke-width="2.6"><title>12 May 19:00: line 28,822.00, limit 28,822.00, stop 28,777.25, ATR 89.41, price 0.20 ATR above the line</title></line>
<line x1="70.0" x2="96.0" y1="552.3" y2="552.3" stroke="#c62828" stroke-width="1.6" stroke-dasharray="4 3"/>
<path d="M83.0,532.8 l6,11 h-12 z" fill="#f57c00" stroke="#ffffff" stroke-width="1"><title>12 May 19:00: line 28,822.00, limit 28,822.00, stop 28,777.25, ATR 89.41, price 0.20 ATR above the line; bid low reaches limit - spread</title></path>
<line x1="96.0" x2="122.0" y1="513.8" y2="513.8" stroke="#f57c00" stroke-width="2.6"><title>12 May 19:30: line 28,824.57, limit 28,824.50, stop 28,777.75, ATR 93.20, price 0.16 ATR above the line</title></line>
<line x1="96.0" x2="122.0" y1="551.9" y2="551.9" stroke="#c62828" stroke-width="1.6" stroke-dasharray="4 3"/>
<path d="M109.0,589.0 l6,11 h-12 z" fill="#f57c00" stroke="#ffffff" stroke-width="1"><title>12 May 19:30: line 28,824.57, limit 28,824.50, stop 28,777.75, ATR 93.20, price 0.16 ATR above the line; bid low reaches limit - spread</title></path>
<line x1="486.0" x2="512.0" y1="562.1" y2="562.1" stroke="#f57c00" stroke-width="2.6"><title>13 May 04:00: line 28,765.37, limit 28,765.25, stop 28,726.50, ATR 77.27, price 4.90 ATR above the line</title></line>
<line x1="486.0" x2="512.0" y1="593.6" y2="593.6" stroke="#c62828" stroke-width="1.6" stroke-dasharray="4 3"/>
<line x1="512.0" x2="538.0" y1="560.9" y2="560.9" stroke="#f57c00" stroke-width="2.6"><title>13 May 04:30: line 28,766.93, limit 28,766.75, stop 28,732.50, ATR 68.27, price 6.26 ATR above the line</title></line>
<line x1="512.0" x2="538.0" y1="588.7" y2="588.7" stroke="#c62828" stroke-width="1.6" stroke-dasharray="4 3"/>
<line x1="538.0" x2="564.0" y1="559.6" y2="559.6" stroke="#f57c00" stroke-width="2.6"><title>13 May 05:00: line 28,768.49, limit 28,768.25, stop 28,732.75, ATR 70.80, price 6.30 ATR above the line</title></line>
<line x1="538.0" x2="564.0" y1="588.5" y2="588.5" stroke="#c62828" stroke-width="1.6" stroke-dasharray="4 3"/>
<line x1="564.0" x2="590.0" y1="558.2" y2="558.2" stroke="#f57c00" stroke-width="2.6"><title>13 May 05:30: line 28,770.05, limit 28,770.00, stop 28,736.25, ATR 67.02, price 6.94 ATR above the line</title></line>
<line x1="564.0" x2="590.0" y1="585.7" y2="585.7" stroke="#c62828" stroke-width="1.6" stroke-dasharray="4 3"/>
<line x1="590.0" x2="616.0" y1="208.1" y2="208.1" stroke="#f57c00" stroke-width="2.6"><title>13 May 06:00: line 29,200.19, limit 29,200.00, stop 29,167.50, ATR 64.82, price 0.34 ATR above the line</title></line>
<line x1="590.0" x2="616.0" y1="234.6" y2="234.6" stroke="#c62828" stroke-width="1.6" stroke-dasharray="4 3"/>
<line x1="616.0" x2="642.0" y1="188.4" y2="188.4" stroke="#f57c00" stroke-width="2.6"><title>13 May 06:30: line 29,224.31, limit 29,224.25, stop 29,194.25, ATR 59.66, price 0.21 ATR above the line</title></line>
<line x1="616.0" x2="642.0" y1="212.8" y2="212.8" stroke="#c62828" stroke-width="1.6" stroke-dasharray="4 3"/>
<line x1="642.0" x2="668.0" y1="168.8" y2="168.8" stroke="#f57c00" stroke-width="2.6"><title>13 May 07:00: line 29,248.42, limit 29,248.25, stop 29,222.25, ATR 51.57, price 0.01 ATR above the line</title></line>
<line x1="642.0" x2="668.0" y1="190.0" y2="190.0" stroke="#c62828" stroke-width="1.6" stroke-dasharray="4 3"/>
<path d="M655.0,180.3 l6,11 h-12 z" fill="#f57c00" stroke="#ffffff" stroke-width="1"><title>13 May 07:00: line 29,248.42, limit 29,248.25, stop 29,222.25, ATR 51.57, price 0.01 ATR above the line; bid low reaches limit - spread</title></path>
<line x1="668.0" x2="694.0" y1="149.1" y2="149.1" stroke="#f57c00" stroke-width="2.6"><title>13 May 07:30: line 29,272.54, limit 29,272.50, stop 29,247.75, ATR 49.02, price 0.07 ATR above the line</title></line>
<line x1="668.0" x2="694.0" y1="169.2" y2="169.2" stroke="#c62828" stroke-width="1.6" stroke-dasharray="4 3"/>
<path d="M681.0,167.7 l6,11 h-12 z" fill="#f57c00" stroke="#ffffff" stroke-width="1"><title>13 May 07:30: line 29,272.54, limit 29,272.50, stop 29,247.75, ATR 49.02, price 0.07 ATR above the line; bid low reaches limit - spread</title></path>
<line x1="694.0" x2="720.0" y1="551.9" y2="551.9" stroke="#f57c00" stroke-width="2.6"><title>13 May 08:00: line 28,777.84, limit 28,777.75, stop 28,753.25, ATR 48.68, price 10.46 ATR above the line</title></line>
<line x1="694.0" x2="720.0" y1="571.9" y2="571.9" stroke="#c62828" stroke-width="1.6" stroke-dasharray="4 3"/>
<line x1="720.0" x2="746.0" y1="550.7" y2="550.7" stroke="#f57c00" stroke-width="2.6"><title>13 May 08:30: line 28,779.40, limit 28,779.25, stop 28,755.50, ATR 47.32, price 11.00 ATR above the line</title></line>
<line x1="720.0" x2="746.0" y1="570.0" y2="570.0" stroke="#c62828" stroke-width="1.6" stroke-dasharray="4 3"/>
<line x1="746.0" x2="772.0" y1="549.5" y2="549.5" stroke="#f57c00" stroke-width="2.6"><title>13 May 09:00: line 28,780.95, limit 28,780.75, stop 28,757.75, ATR 45.93, price 11.22 ATR above the line</title></line>
<line x1="746.0" x2="772.0" y1="568.2" y2="568.2" stroke="#c62828" stroke-width="1.6" stroke-dasharray="4 3"/>
<circle cx="109.0" cy="590.0" r="2.4" fill="#2962ff"/>
<circle cx="447.0" cy="334.8" r="2.4" fill="#2962ff"/>
<text x="622.0" y="202.1" fill="#f57c00" font-weight="600">limit = line at this bar's open</text>
<text x="622.0" y="249.6" fill="#c62828" font-weight="600">stop = limit - 0.5 x ATR</text>
<circle cx="801" cy="72" r="3" fill="#2962ff"/>
<text x="820" y="76" fill="#202124">Confirmed swing low</text>
<circle cx="801" cy="94" r="4" fill="none" stroke="#7b1fa2" stroke-width="1.5"/>
<text x="820" y="98" fill="#202124">Line anchors</text>
<line x1="790" x2="812" y1="120" y2="112" stroke="#7b1fa2" stroke-width="1.2"/>
<text x="820" y="120" fill="#202124">Rising line carrying the order</text>
<path d="M790,141 h8 v-3 h7 v-3 h7" fill="none" stroke="#f57c00" stroke-width="2.4"/>
<text x="820" y="142" fill="#202124">Buy limit (per bar)</text>
<line x1="790" x2="812" y1="160" y2="160" stroke="#c62828" stroke-width="1.6" stroke-dasharray="4 3"/>
<text x="820" y="164" fill="#202124">Stop (per bar)</text>
<path d="M801,176 l6,11 h-12 z" fill="#f57c00"/>
<text x="820" y="186" fill="#202124">Bid low reaches limit - spread</text>
</svg>